<svg width="62" height="63" viewBox="0 0 62 63" fill="none" xmlns="http://www.w3.org/2000/svg">
<path fill-rule="evenodd" clip-rule="evenodd" d="M43.8139 10.0545C45.2879 8.74833 47.5441 8.88365 48.8535 10.3558L53.201 15.2503C54.5104 16.7224 54.3766 18.9767 52.9027 20.2829L40.379 31.3852L51.6111 44.5619C52.8893 46.0624 52.7093 48.3132 51.2085 49.5898L46.2246 53.827C44.7238 55.1036 42.4707 54.9229 41.1924 53.4223L30.1427 40.4605L17.3058 51.8408C15.8319 53.1471 13.5758 53.0117 12.2668 51.5378L7.91882 46.6451C6.60937 45.1729 6.74323 42.9187 8.21712 41.6125L21.265 30.0444L10.3178 17.2014C9.03894 15.7025 9.21911 13.4518 10.7199 12.1751L15.7036 7.93793C17.2044 6.66131 19.4576 6.84204 20.7359 8.34262L31.5007 20.9708L43.8139 10.0545Z" fill="#9E2835" fill-opacity="0.35"/>
</svg>
