<svg width="74" height="74" viewBox="0 0 74 74" fill="none" xmlns="http://www.w3.org/2000/svg">
<path fill-rule="evenodd" clip-rule="evenodd" d="M51.4258 15.2924C54.6931 12.8894 59.3176 13.5809 61.7613 16.8396L62.6151 17.9789C65.0554 21.2359 64.3861 25.8251 61.1188 28.2282L47.7693 38.0537L57.851 52.0967C60.2255 55.4035 59.4595 59.9771 56.1459 62.3137L54.9865 63.1305C51.6694 65.4662 47.0568 64.6791 44.6823 61.3723L34.7956 47.5998L21.067 57.7022C17.8032 60.1065 13.1752 59.4137 10.735 56.1563L9.88106 55.017C7.44076 51.7599 8.10658 47.1695 11.3739 44.7664L25.3688 34.4673L15.5787 20.8276C13.2042 17.5208 13.9668 12.9459 17.2838 10.6106L18.4431 9.79378C21.7568 7.45681 26.3695 8.24392 28.744 11.5507L38.3425 24.9212L51.4258 15.2924Z" fill="#9E2835" fill-opacity="0.35"/>
</svg>
