<svg width="59" height="59" viewBox="0 0 59 59" fill="none" xmlns="http://www.w3.org/2000/svg">
<path fill-rule="evenodd" clip-rule="evenodd" d="M11.153 9.9746C9.8139 7.27113 10.9085 3.98815 13.5949 2.64325L17.7263 0.573969C20.4099 -0.770932 23.6721 0.327935 25.0085 3.03141L32.8339 18.8504L49.2752 11.0325C51.9888 9.74225 55.2265 10.9122 56.5086 13.6403L58.4778 17.839C59.7599 20.5698 58.6001 23.8282 55.8866 25.1184L39.7331 32.7969L47.7596 49.026C49.096 51.7294 48.004 55.0097 45.3177 56.3546L41.1863 58.4266C38.5 59.7715 35.2405 58.6699 33.9014 55.9664L25.7337 39.4531L9.72427 47.0633C7.01347 48.3535 3.77577 47.1836 2.49371 44.4555L0.521733 40.2567C-0.760326 37.5259 0.402204 34.2676 3.113 32.9773L18.8345 25.5038L11.153 9.9746Z" fill="#9E2835" fill-opacity="0.35"/>
</svg>
