<svg width="34" height="34" viewBox="0 0 34 34" fill="none" xmlns="http://www.w3.org/2000/svg">
<path fill-rule="evenodd" clip-rule="evenodd" d="M14.2232 3.73517C14.5245 1.39174 16.6685 -0.264526 19.0165 0.0349946C21.3645 0.334515 23.0241 2.47696 22.7228 4.81762L21.6519 13.1764L30.3463 14.467C32.6873 14.8163 34.3005 16.9904 33.9529 19.3264C33.6052 21.6625 31.4241 23.2746 29.0853 22.9253L20.5672 21.6602L19.4638 30.2665C19.1625 32.6071 17.0162 34.2655 14.6705 33.9648C12.3225 33.6664 10.6629 31.5247 10.9619 29.1817L12.0884 20.4019L3.65368 19.1507C1.31495 18.8014 -0.300602 16.6273 0.0470788 14.2912C0.394759 11.9552 2.57584 10.3431 4.91688 10.6924L13.1755 11.9182L14.2232 3.73517Z" fill="#9E2835" fill-opacity="0.35"/>
</svg>
