<svg width="46" height="46" viewBox="0 0 46 46" fill="none" xmlns="http://www.w3.org/2000/svg">
<path fill-rule="evenodd" clip-rule="evenodd" d="M29.0701 2.65267C30.0366 1.23034 31.9751 0.859755 33.3997 1.82405L38.1313 5.03129C39.5559 5.99559 39.9274 7.93207 38.9608 9.3544L30.7496 21.4427L43.0881 30.1786C44.4925 31.1736 44.8241 33.1171 43.8285 34.5202L40.5218 39.1776C39.5262 40.5806 37.5807 40.9121 36.1763 39.9171L24.0383 31.3238L15.6218 43.7146C14.6553 45.137 12.7169 45.5075 11.2923 44.5417L6.5607 41.336C5.13603 40.3717 4.76461 38.4352 5.73107 37.0129L14.2858 24.4177L2.26007 15.9029C0.855579 14.9094 0.524113 12.966 1.5197 11.5629L4.82619 6.90552C5.82179 5.50246 7.76743 5.17096 9.17188 6.16599L20.997 14.5382L29.0701 2.65267Z" fill="#9E2835" fill-opacity="0.35"/>
</svg>
