<svg width="42" height="43" viewBox="0 0 42 43" fill="none" xmlns="http://www.w3.org/2000/svg">
<path fill-rule="evenodd" clip-rule="evenodd" d="M26.6296 1.72053C27.5246 0.343249 29.3669 -0.047929 30.7446 0.845962L35.3204 3.81915C36.6982 4.71305 37.0896 6.55586 36.1947 7.93313L28.5917 19.6385L40.5312 27.7475C41.8902 28.6711 42.2437 30.5214 41.3207 31.8808L38.255 36.3934C37.3319 37.7528 35.482 38.1068 34.123 37.1832L22.3776 29.2066L14.5845 41.2049C13.6896 42.5822 11.8473 42.9734 10.4696 42.078L5.89379 39.1063C4.51604 38.2124 4.1246 36.3696 5.01947 34.9923L12.9405 22.7961L1.30366 14.8924C-0.0553897 13.9702 -0.408847 12.12 0.514192 10.7606L3.57977 6.24798C4.50282 4.88856 6.35281 4.53457 7.71185 5.45821L19.1546 13.2296L26.6296 1.72053Z" fill="#9E2835" fill-opacity="0.35"/>
</svg>
