<svg width="38" height="39" viewBox="0 0 38 39" fill="none" xmlns="http://www.w3.org/2000/svg">
<path fill-rule="evenodd" clip-rule="evenodd" d="M23.9848 1.35496C24.8801 -0.0223129 26.7215 -0.414967 28.1002 0.480412L31.8126 2.89139C33.1899 3.78677 33.5811 5.62809 32.6857 7.00686L25.9123 17.4361L36.5453 24.6586C37.9048 25.5807 38.2572 27.431 37.3351 28.7904L34.8483 32.4523C33.9246 33.8117 32.0744 34.1642 30.715 33.242L20.259 26.14L13.319 36.8235C12.4251 38.2008 10.5823 38.5935 9.20504 37.6981L5.49264 35.2871C4.11388 34.3918 3.72273 32.5489 4.61811 31.1716L11.674 20.3081L1.30282 13.2656C-0.055116 12.342 -0.409101 10.4932 0.514537 9.13377L3.00136 5.47193C3.92351 4.1125 5.77374 3.7585 7.13317 4.68214L17.3274 11.6057L23.9848 1.35496Z" fill="#9E2835" fill-opacity="0.35"/>
</svg>
