<svg width="347" height="253" viewBox="0 0 347 253" fill="none" xmlns="http://www.w3.org/2000/svg">
<path d="M202.427 40.9531L204.336 47.0936L282.357 111.76L282.36 108.066L202.427 40.9531Z" fill="#A2C0D2" stroke="#5184A3" stroke-width="0.708845"/>
<path d="M200.998 54.0856L194.08 51.8071L273.314 118.118L277.171 117.817L200.998 54.0856Z" fill="#5184A3" stroke="#5184A3" stroke-width="0.708845"/>
<path d="M295.957 127.526C296.243 127.922 295.819 128.44 295.374 128.239L289.098 125.403L291.931 121.938L295.957 127.526Z" fill="#5184A3"/>
<path d="M282.407 108.081L295.356 127.642" stroke="#5184A3" stroke-width="0.708845"/>
<path d="M273.349 118.139L295.214 127.75" stroke="#5184A3" stroke-width="0.77973"/>
<path d="M277.782 113.69L277.722 117.362L196.264 49.4659L201.456 50.8323L202.078 50.996L201.884 50.3828L200.053 44.584L204.171 47.2314L281.953 112.343L278.048 113.352L277.787 113.42L277.782 113.69Z" fill="white" stroke="#5184A3" stroke-width="0.708845"/>
<path d="M52.4293 122.926C51.2855 121.29 51.3088 119.021 52.8655 117.714L145.364 40L141.097 48.1834L52.4293 122.926Z" fill="#A2C0D2" stroke="#5184A3" stroke-width="0.708845"/>
<path d="M56.7189 127.438L153.466 46.6724L149.333 54.5941L61.723 127.93C60.2861 129.129 57.9242 128.867 56.7189 127.438Z" fill="#5184A3" stroke="#5184A3" stroke-width="0.708845"/>
<path d="M52.1912 122.688L141.845 47.7401L148.976 45.2427L142.367 52.3428L152.989 46.4835L56.2422 127.454L52.1912 122.688Z" fill="white" stroke="#5184A3" stroke-width="0.624328"/>
<path d="M51.9904 123.228C50.4877 121.509 50.7213 118.947 52.5121 117.505L54.0657 116.254L63.3912 126.92L61.8376 128.171C60.0469 129.613 57.3771 129.389 55.8744 127.67L51.9904 123.228Z" fill="#5184A3"/>
<path d="M60.8426 198.725H58.2311C56.2737 198.725 54.6869 200.129 54.6869 201.861V203.214C54.6869 204.946 56.2737 206.35 58.2311 206.35H60.8426C62.8001 206.35 64.3869 204.946 64.3869 203.214V201.861C64.3869 200.129 62.8001 198.725 60.8426 198.725Z" fill="#5184A3"/>
<path d="M221.862 244.687H219.25C217.293 244.687 215.706 246.091 215.706 247.823V249.176C215.706 250.908 217.293 252.312 219.25 252.312H221.862C223.819 252.312 225.406 250.908 225.406 249.176V247.823C225.406 246.091 223.819 244.687 221.862 244.687Z" fill="#A2C0D2"/>
<path d="M145.868 247.822C145.868 246.091 147.454 244.687 149.412 244.687H206.343C208.301 244.687 209.887 246.091 209.887 247.822V249.176C209.887 250.908 208.301 252.312 206.343 252.312H149.412C147.454 252.312 145.868 250.908 145.868 249.176V247.822Z" fill="#A2C0D2"/>
<path d="M136.503 244.687H124.191C122.234 244.687 120.647 246.091 120.647 247.823V249.176C120.647 250.908 122.234 252.312 124.191 252.312H136.503C138.46 252.312 140.047 250.908 140.047 249.176V247.823C140.047 246.091 138.46 244.687 136.503 244.687Z" fill="#A2C0D2"/>
<path d="M266.483 221.705H238.651C236.694 221.705 235.107 223.109 235.107 224.841V226.194C235.107 227.926 236.694 229.33 238.651 229.33H266.483C268.44 229.33 270.027 227.926 270.027 226.194V224.841C270.027 223.109 268.44 221.705 266.483 221.705Z" fill="#5184A3"/>
<path d="M227.682 221.705H122.25C120.293 221.705 118.706 223.109 118.706 224.841V226.194C118.706 227.926 120.293 229.33 122.25 229.33H227.682C229.639 229.33 231.226 227.926 231.226 226.194V224.841C231.226 223.109 229.639 221.705 227.682 221.705Z" fill="#5184A3"/>
<path d="M109.343 221.705H97.0311C95.0737 221.705 93.4869 223.109 93.4869 224.841V226.194C93.4869 227.926 95.0737 229.33 97.0311 229.33H109.343C111.3 229.33 112.887 227.926 112.887 226.194V224.841C112.887 223.109 111.3 221.705 109.343 221.705Z" fill="#5184A3"/>
<path d="M86.0622 221.705H83.4507C81.4933 221.705 79.9065 223.109 79.9065 224.841V226.194C79.9065 227.926 81.4933 229.33 83.4507 229.33H86.0622C88.0196 229.33 89.6065 227.926 89.6065 226.194V224.841C89.6065 223.109 88.0196 221.705 86.0622 221.705Z" fill="#5184A3"/>
<path d="M289.762 198.724H277.451C275.493 198.724 273.906 200.128 273.906 201.86V203.213C273.906 204.945 275.493 206.349 277.451 206.349H289.762C291.72 206.349 293.306 204.945 293.306 203.213V201.86C293.306 200.128 291.72 198.724 289.762 198.724Z" fill="#5184A3"/>
<path d="M266.483 198.724H263.871C261.914 198.724 260.327 200.128 260.327 201.86V203.213C260.327 204.945 261.914 206.349 263.871 206.349H266.483C268.44 206.349 270.027 204.945 270.027 203.213V201.86C270.027 200.128 268.44 198.724 266.483 198.724Z" fill="#5184A3"/>
<path d="M252.903 198.724H95.0913C93.1339 198.724 91.5471 200.128 91.5471 201.86V203.213C91.5471 204.945 93.1339 206.349 95.0913 206.349H252.903C254.86 206.349 256.447 204.945 256.447 203.213V201.86C256.447 200.128 254.86 198.724 252.903 198.724Z" fill="#5184A3"/>
<path d="M84.1225 198.724H71.811C69.8536 198.724 68.2668 200.128 68.2668 201.86V203.213C68.2668 204.945 69.8536 206.349 71.811 206.349H84.1225C86.0799 206.349 87.6667 204.945 87.6667 203.213V201.86C87.6667 200.128 86.0799 198.724 84.1225 198.724Z" fill="#5184A3"/>
<circle cx="337.565" cy="100.426" r="7.41374" stroke="#A2C0D2" stroke-width="3.3"/>
<circle cx="46" cy="232" r="6.5" stroke="#A2C0D2" stroke-width="3"/>
<circle cx="126.701" cy="8.70119" r="7.20119" stroke="#A2C0D2" stroke-width="3"/>
<circle cx="314.625" cy="26.6255" r="3.6255" fill="#A2C0D2"/>
<path fill-rule="evenodd" clip-rule="evenodd" d="M137.295 87.1283C136.938 86.4113 137.23 85.5408 137.947 85.1839L139.049 84.6349C139.766 84.278 140.637 84.5699 140.994 85.2869L143.083 89.483L147.473 87.4092C148.197 87.0672 149.061 87.3769 149.403 88.1011L149.93 89.2149C150.272 89.9391 149.962 90.8035 149.238 91.1456L144.925 93.183L147.067 97.4873C147.424 98.2043 147.132 99.0749 146.415 99.4318L145.313 99.9808C144.596 100.338 143.725 100.046 143.368 99.3288L141.187 94.9483L136.915 96.9665C136.191 97.3086 135.326 96.9989 134.984 96.2747L134.458 95.1609C134.116 94.4367 134.426 93.5723 135.15 93.2302L139.346 91.2483L137.295 87.1283Z" fill="#9E2835" fill-opacity="0.35"/>
<path fill-rule="evenodd" clip-rule="evenodd" d="M12.9811 85.6604C13.4174 84.9888 14.3156 84.7979 14.9872 85.2342L17.218 86.6831C17.8897 87.1194 18.0805 88.0175 17.6442 88.6892L13.938 94.3953L19.7595 98.3492C20.4221 98.7992 20.5944 99.7011 20.1444 100.364L18.6499 102.564C18.1999 103.227 17.298 103.399 16.6354 102.949L10.9086 99.0594L7.10894 104.909C6.67268 105.581 5.77451 105.772 5.10284 105.336L2.87208 103.887C2.20041 103.45 2.00957 102.552 2.44584 101.88L6.30779 95.9347L0.635553 92.0822C-0.027004 91.6322 -0.199319 90.7303 0.250676 90.0678L1.74519 87.8673C2.19519 87.2047 3.09709 87.0324 3.75964 87.4824L9.33721 91.2706L12.9811 85.6604Z" fill="#9E2835" fill-opacity="0.35"/>
<path fill-rule="evenodd" clip-rule="evenodd" d="M303.694 146.66C304.13 145.989 305.028 145.798 305.7 146.234L307.509 147.41C308.181 147.846 308.372 148.744 307.936 149.416L304.633 154.501L309.817 158.022C310.479 158.472 310.651 159.374 310.201 160.036L308.989 161.822C308.539 162.484 307.637 162.656 306.974 162.206L301.877 158.744L298.494 163.952C298.058 164.624 297.16 164.815 296.488 164.378L294.678 163.203C294.007 162.767 293.816 161.868 294.252 161.197L297.691 155.902L292.636 152.468C291.973 152.018 291.801 151.116 292.251 150.453L293.463 148.668C293.913 148.006 294.815 147.833 295.478 148.283L300.447 151.658L303.694 146.66Z" fill="#9E2835" fill-opacity="0.35"/>
<path fill-rule="evenodd" clip-rule="evenodd" d="M320.332 219.896C320.019 219.158 320.363 218.307 321.1 217.994L321.586 217.788C322.323 217.475 323.175 217.819 323.487 218.556L324.91 221.908L328.418 220.504C329.162 220.206 330.006 220.568 330.304 221.311L330.5 221.801C330.797 222.545 330.436 223.389 329.692 223.686L326.249 225.064L327.711 228.508C328.024 229.245 327.68 230.097 326.942 230.41L326.457 230.616C325.72 230.929 324.868 230.585 324.555 229.847L323.066 226.339L319.656 227.704C318.912 228.002 318.068 227.64 317.77 226.897L317.574 226.407C317.277 225.663 317.638 224.819 318.382 224.522L321.727 223.183L320.332 219.896Z" fill="#9E2835" fill-opacity="0.35"/>
<circle cx="258.167" cy="177.649" r="4.35059" fill="#A2C0D2"/>
<path fill-rule="evenodd" clip-rule="evenodd" d="M224.972 4.54534C225.279 3.80541 226.127 3.45409 226.867 3.76065L227.603 4.06567C228.343 4.37223 228.694 5.22058 228.388 5.96051L226.841 9.69426L230.677 11.377C231.411 11.6987 231.745 12.5541 231.423 13.2876L231.103 14.0174C230.781 14.7508 229.926 15.0846 229.192 14.7629L225.425 13.1107L223.837 16.944C223.531 17.6839 222.682 18.0352 221.942 17.7287L221.206 17.4236C220.466 17.1171 220.115 16.2687 220.422 15.5288L222.039 11.6253L218.305 9.98736C217.571 9.66564 217.237 8.81025 217.559 8.07678L217.879 7.34699C218.201 6.61352 219.056 6.27974 219.79 6.60146L223.454 8.2088L224.972 4.54534Z" fill="#9E2835" fill-opacity="0.35"/>
<path fill-rule="evenodd" clip-rule="evenodd" d="M278.358 68.6127C278.919 68.1298 279.765 68.1932 280.248 68.7543C280.731 69.3155 280.668 70.1618 280.107 70.6447L278.104 72.3679L279.854 74.4883C280.326 75.0592 280.245 75.9041 279.674 76.3754C279.103 76.8466 278.258 76.7658 277.787 76.1948L276.072 74.117L274.01 75.8909C273.449 76.3738 272.603 76.3104 272.12 75.7492C271.637 75.1881 271.701 74.3418 272.262 73.8589L274.365 72.049L272.667 69.992C272.196 69.4211 272.277 68.5762 272.848 68.105C273.419 67.6337 274.263 67.7145 274.735 68.2855L276.397 70.2999L278.358 68.6127Z" fill="#9E2835" fill-opacity="0.35"/>
<path fill-rule="evenodd" clip-rule="evenodd" d="M15.6012 188.078C15.3454 187.383 15.7012 186.613 16.3959 186.357C17.0906 186.101 17.8612 186.457 18.117 187.152L19.0298 189.631L21.6288 188.734C22.3286 188.493 23.0917 188.864 23.3331 189.564C23.5746 190.264 23.203 191.027 22.5031 191.268L19.9563 192.147L20.896 194.699C21.1518 195.394 20.796 196.164 20.1013 196.42C19.4066 196.676 18.636 196.32 18.3802 195.625L17.4215 193.022L14.9002 193.892C14.2004 194.133 13.4373 193.761 13.1959 193.062C12.9544 192.362 13.326 191.599 14.0258 191.357L16.495 190.505L15.6012 188.078Z" fill="#9E2835" fill-opacity="0.35"/>
<circle cx="66.3506" cy="167.351" r="4.35059" fill="#A2C0D2"/>
<circle cx="192.701" cy="71.7012" r="7.05119" stroke="#A2C0D2" stroke-width="3.3"/>
<circle cx="84" cy="65" r="3" fill="#A2C0D2"/>
<circle cx="20" cy="147" r="1.5" stroke="#A2C0D2"/>
<path fill-rule="evenodd" clip-rule="evenodd" d="M30.2201 8.52251C29.8643 7.8733 30.1022 7.05858 30.7514 6.70279C31.4006 6.34701 32.2153 6.58488 32.5711 7.23409L33.8407 9.55082L36.2784 8.27942C36.9348 7.93707 37.7445 8.19165 38.0868 8.84805C38.4292 9.50445 38.1746 10.3141 37.5182 10.6564L35.1294 11.9023L36.4364 14.2871C36.7922 14.9364 36.5543 15.7511 35.9051 16.1069C35.2559 16.4626 34.4411 16.2248 34.0854 15.5756L32.7519 13.1424L30.3871 14.3758C29.7307 14.7181 28.9211 14.4635 28.5787 13.8071C28.2364 13.1507 28.4909 12.3411 29.1473 11.9987L31.4632 10.7909L30.2201 8.52251Z" fill="#9E2835" fill-opacity="0.35"/>
</svg>
