<svg width="517" height="447" viewBox="0 0 517 447" fill="none" xmlns="http://www.w3.org/2000/svg">
<path d="M317.731 3L321.735 15.8844L485.444 151.571L485.45 143.82L317.731 3Z" fill="#A2C0D2" stroke="#5184A3" stroke-width="1.48734"/>
<path d="M314.733 30.5558L300.218 25.7749L466.471 164.913L474.564 164.28L314.733 30.5558Z" fill="#5184A3" stroke="#5184A3" stroke-width="1.48734"/>
<path d="M513.982 184.652C514.58 185.483 513.692 186.57 512.759 186.148L499.588 180.198L505.533 172.928L513.982 184.652Z" fill="#5184A3"/>
<path d="M485.549 143.852L512.72 184.896" stroke="#5184A3" stroke-width="1.48734"/>
<path d="M466.543 164.955L512.421 185.122" stroke="#5184A3" stroke-width="1.63607"/>
<path d="M475.846 155.62L475.72 163.326L304.801 20.8623L315.696 23.7292L317 24.0727L316.594 22.7861L312.751 10.6187L321.392 16.1737L484.599 152.794L476.404 154.912L475.857 155.055L475.846 155.62Z" fill="white" stroke="#5184A3" stroke-width="1.48734"/>
<path d="M3 175C0.600191 171.567 0.649036 166.807 3.91533 164.063L198 1L189.048 18.1708L3 175Z" fill="#A2C0D2" stroke="#5184A3" stroke-width="1.48734"/>
<path d="M12 184.468L215 15L206.329 31.6217L22.5 185.5C19.4849 188.015 14.5292 187.466 12 184.468Z" fill="#5184A3" stroke="#5184A3" stroke-width="1.48734"/>
<path d="M2.5 174.5L190.617 17.2402L205.58 12L191.713 26.8978L214 14.6035L11 184.5L2.5 174.5Z" fill="white" stroke="#5184A3" stroke-width="1.31"/>
<path d="M2.07802 175.634C-1.07485 172.027 -0.584743 166.651 3.17279 163.625L6.43254 161L26 183.38L22.7401 186.006C18.9827 189.032 13.3807 188.561 10.2278 184.954L2.07802 175.634Z" fill="#5184A3"/>
<path d="M20.6527 334.043H15.173C11.0659 334.043 7.73633 336.989 7.73633 340.623V343.463C7.73633 347.097 11.0659 350.043 15.173 350.043H20.6527C24.7598 350.043 28.0894 347.097 28.0894 343.463V340.623C28.0894 336.989 24.7598 334.043 20.6527 334.043Z" fill="#5184A3"/>
<path d="M358.513 430.484H353.033C348.926 430.484 345.597 433.43 345.597 437.064V439.904C345.597 443.538 348.926 446.484 353.033 446.484H358.513C362.62 446.484 365.95 443.538 365.95 439.904V437.064C365.95 433.43 362.62 430.484 358.513 430.484Z" fill="#A2C0D2"/>
<path d="M199.057 437.064C199.057 433.431 202.385 430.484 206.493 430.484H325.949C330.057 430.484 333.386 433.431 333.386 437.064V439.904C333.386 443.539 330.057 446.484 325.949 446.484H206.493C202.385 446.484 199.057 443.539 199.057 439.904V437.064Z" fill="#A2C0D2"/>
<path d="M179.407 430.484H153.574C149.467 430.484 146.138 433.43 146.138 437.064V439.904C146.138 443.538 149.467 446.484 153.574 446.484H179.407C183.514 446.484 186.844 443.538 186.844 439.904V437.064C186.844 433.43 183.514 430.484 179.407 430.484Z" fill="#A2C0D2"/>
<path d="M452.137 382.264H393.739C389.632 382.264 386.303 385.21 386.303 388.844V391.684C386.303 395.318 389.632 398.264 393.739 398.264H452.137C456.244 398.264 459.574 395.318 459.574 391.684V388.844C459.574 385.21 456.244 382.264 452.137 382.264Z" fill="#5184A3"/>
<path d="M370.726 382.264H149.503C145.396 382.264 142.066 385.21 142.066 388.844V391.684C142.066 395.318 145.396 398.264 149.503 398.264H370.726C374.833 398.264 378.162 395.318 378.162 391.684V388.844C378.162 385.21 374.833 382.264 370.726 382.264Z" fill="#5184A3"/>
<path d="M122.418 382.264H96.5851C92.478 382.264 89.1484 385.21 89.1484 388.844V391.684C89.1484 395.318 92.478 398.264 96.5851 398.264H122.418C126.525 398.264 129.855 395.318 129.855 391.684V388.844C129.855 385.21 126.525 382.264 122.418 382.264Z" fill="#5184A3"/>
<path d="M73.5706 382.264H68.091C63.9838 382.264 60.6543 385.21 60.6543 388.844V391.684C60.6543 395.318 63.9838 398.264 68.091 398.264H73.5706C77.6778 398.264 81.0074 395.318 81.0074 391.684V388.844C81.0074 385.21 77.6778 382.264 73.5706 382.264Z" fill="#5184A3"/>
<path d="M500.985 334.043H475.153C471.045 334.043 467.716 336.989 467.716 340.623V343.463C467.716 347.097 471.045 350.043 475.153 350.043H500.985C505.092 350.043 508.422 347.097 508.422 343.463V340.623C508.422 336.989 505.092 334.043 500.985 334.043Z" fill="#5184A3"/>
<path d="M452.138 334.043H446.658C442.551 334.043 439.222 336.989 439.222 340.623V343.463C439.222 347.097 442.551 350.043 446.658 350.043H452.138C456.245 350.043 459.575 347.097 459.575 343.463V340.623C459.575 336.989 456.245 334.043 452.138 334.043Z" fill="#5184A3"/>
<path d="M423.644 334.043H92.5148C88.4076 334.043 85.0781 336.989 85.0781 340.623V343.463C85.0781 347.097 88.4076 350.043 92.5148 350.043H423.644C427.751 350.043 431.081 347.097 431.081 343.463V340.623C431.081 336.989 427.751 334.043 423.644 334.043Z" fill="#5184A3"/>
<path d="M69.4999 334.043H43.6672C39.56 334.043 36.2305 336.989 36.2305 340.623V343.463C36.2305 347.097 39.56 350.043 43.6672 350.043H69.4999C73.607 350.043 76.9366 347.097 76.9366 343.463V340.623C76.9366 336.989 73.607 334.043 69.4999 334.043Z" fill="#5184A3"/>
</svg>
