<svg width="229" height="229" viewBox="0 0 245 245" fill="none" xmlns="http://www.w3.org/2000/svg">
    <path d="M122.5 7.65625C59.0756 7.65625 7.65625 59.0756 7.65625 122.5C7.65625 185.924 59.0756 237.344 122.5 237.344C185.924 237.344 237.344 185.924 237.344 122.5C237.344 59.0756 185.924 7.65625 122.5 7.65625ZM191.801 43.3497C180.895 38.9939 168.988 37.7805 157.428 39.847C154.737 40.3638 156.693 48.5368 158.913 48.1004C174.869 45.2369 191.284 49.6316 203.664 60.0939C204.288 60.6375 205.459 60.1513 206.592 59.2441C213.291 68.135 218.537 78.0325 222.135 88.5675C213.341 74.48 197.749 65.0781 179.922 65.0781C162.569 65.0781 147.302 73.9709 138.394 87.442C128.104 82.9708 116.172 83.3804 106.617 87.4688C97.7129 73.9823 82.4463 65.0781 65.0781 65.0781C47.2505 65.0781 31.6586 74.4838 22.8692 88.5713C26.5182 77.8859 31.8643 67.858 38.7023 58.8727C39.7359 59.6269 40.7619 60.0173 41.3284 59.5197C47.4489 54.3538 54.6329 50.6008 62.3691 48.5278C70.1054 46.4548 78.2034 46.1128 86.0869 47.5262C88.3072 47.9588 90.2672 39.7895 87.576 39.2727C76.4363 37.2852 64.9666 38.3433 54.3785 42.3352C72.7573 26.6935 96.5377 17.2266 122.5 17.2266C149.021 17.2266 173.269 27.107 191.801 43.3497ZM218.203 114.844C218.203 135.979 201.057 153.125 179.922 153.125C158.787 153.125 141.641 135.979 141.641 114.844C141.641 93.6972 158.787 76.5625 179.922 76.5625C201.057 76.5625 218.203 93.6972 218.203 114.844ZM103.363 114.844C103.363 135.986 86.217 153.125 65.0781 153.125C43.9392 153.125 26.7969 135.986 26.7969 114.844C26.7969 93.6972 43.9354 76.5625 65.0781 76.5625C86.2209 76.5625 103.363 93.6972 103.363 114.844ZM122.5 227.773C66.751 227.773 21.0126 184.213 17.4716 129.345C23.6846 149.752 42.6415 164.609 65.0781 164.609C92.5641 164.609 114.844 142.33 114.844 114.844C114.844 109.959 114.113 105.25 112.8 100.791C118.657 99.1216 126.351 99.1293 132.2 100.795C130.849 105.355 130.161 110.087 130.156 114.844C130.156 142.33 152.436 164.609 179.922 164.609C202.359 164.609 221.315 149.752 227.528 129.345C223.987 184.213 178.249 227.773 122.5 227.773Z" fill="#8E8E8E"/>
    <path d="M76.5625 135.898C85.0194 135.898 91.875 127.329 91.875 116.758C91.875 106.187 85.0194 97.6172 76.5625 97.6172C68.1056 97.6172 61.25 106.187 61.25 116.758C61.25 127.329 68.1056 135.898 76.5625 135.898Z" fill="#8E8E8E"/>
    <path d="M168.438 135.898C176.894 135.898 183.75 127.329 183.75 116.758C183.75 106.187 176.894 97.6172 168.438 97.6172C159.981 97.6172 153.125 106.187 153.125 116.758C153.125 127.329 159.981 135.898 168.438 135.898Z" fill="#8E8E8E"/>
    <path d="M158.501 172.841C146.163 181.527 126.524 187.518 106.208 182.154C100.769 180.711 96.5042 194.826 102.311 196.445C124.388 202.378 148.437 198.087 167.122 184.907C171.735 181.584 163.087 169.491 158.501 172.841Z" fill="#8E8E8E"/>
</svg>
